<svg xmlns="http://www.w3.org/2000/svg" width="51" height="51" fill="none" viewBox="0 0 51 51"><path fill="#F25D27" d="M42.2346 19.1529C39.8699 19.1529 37.9076 20.8797 37.5263 23.1373H37.4661C33.9511 23.1373 31.0915 25.9972 31.0915 29.5123V31.0781V37.3814V43.0312C31.0915 46.5463 28.2347 49.4062 24.7245 49.4062C21.2139 49.4062 18.3579 46.5463 18.3579 43.0312V27.8201C25.0859 26.6802 30.3054 11.4607 31.0836 6.49812C31.2868 5.2008 30.8979 3.9003 29.9887 2.83727C28.8949 1.55988 27.2243 0.796875 25.5198 0.796875H23.2806C23.2806 0.357 20.8927 0 20.8927 0C20.4528 0 20.0966 0.357 20.0966 0.796875V2.39062C20.0966 2.8305 20.4532 3.1875 20.8927 3.1875C20.8927 3.1875 23.2806 2.8305 23.2806 2.39062H25.5198C26.7462 2.39062 27.9941 2.9588 28.777 3.87361C29.2025 4.37166 29.6751 5.18805 29.5085 6.25188C28.5754 12.2017 22.9483 26.2969 17.5602 26.2969C12.1713 26.2969 6.54459 12.2017 5.61185 6.25148C5.4453 5.18805 5.91745 4.37166 6.34298 3.87401C7.12551 2.9588 8.37382 2.39062 9.60021 2.39062H12.1367C12.1367 2.8305 14.5245 3.1875 14.5245 3.1875C14.964 3.1875 15.3206 2.8305 15.3206 2.39062V0.796875C15.3206 0.357 14.964 0 14.5245 0C14.5245 0 12.1367 0.357 12.1367 0.796875H9.60021C7.89529 0.796875 6.22464 1.55988 5.13173 2.83807C4.2225 3.9011 3.83362 5.2012 4.03722 6.49852C4.81497 11.4611 10.0345 26.6802 16.7633 27.8205V43.0312C16.7633 47.4248 20.3345 51 24.7237 51C29.1133 51 32.6845 47.4248 32.6845 43.0312V37.3814V31.0781V29.5123C32.6845 26.8758 34.8293 24.731 37.4653 24.731H37.5251C37.9064 26.989 39.8699 28.7154 42.2338 28.7154C44.8699 28.7154 47.0147 26.5706 47.0147 23.9341C47.0155 21.2981 44.8707 19.1529 42.2346 19.1529ZM42.2346 27.9185C40.3106 27.9185 38.7013 26.5475 38.3307 24.731H40.8624C41.1381 25.2052 41.6469 25.5279 42.2346 25.5279C43.1148 25.5279 43.8284 24.8143 43.8284 23.9341C43.8284 23.054 43.1148 22.3404 42.2346 22.3404C41.6457 22.3404 41.1381 22.6631 40.8624 23.1373H38.3307C38.7013 21.3208 40.3106 19.9498 42.2346 19.9498C44.432 19.9498 46.2186 21.7372 46.2186 23.9341C46.2186 26.1311 44.432 27.9185 42.2346 27.9185Z"/></svg>